<svg xmlns="http://www.w3.org/2000/svg" viewBox="0 0 202.17 173.9"><defs><style>.cls-1{fill:#f6f5f3;}.cls-10,.cls-2{fill:#fff;}.cls-11,.cls-2,.cls-3,.cls-4,.cls-6{stroke:#000;}.cls-11,.cls-2,.cls-6,.cls-9{stroke-linecap:round;}.cls-2{stroke-linejoin:round;}.cls-11,.cls-2,.cls-3,.cls-4,.cls-6,.cls-9{stroke-width:1.5px;}.cls-3{fill:#0080FF;}.cls-3,.cls-4,.cls-6,.cls-7,.cls-9{stroke-miterlimit:10;}.cls-4{fill:#0034CD;}.cls-5{fill:#100f1d;}.cls-11,.cls-14,.cls-6,.cls-7,.cls-9{fill:none;}.cls-7,.cls-9{stroke:#ccc7b8;}.cls-7,.cls-8{opacity:0.85;}.cls-10{opacity:0.84;}.cls-11{stroke-miterlimit:50;stroke-dasharray:4.99 4.99;}.cls-12{fill:#ff6161;}.cls-13{fill:#141321;}</style></defs><title>illustration-cart-empty_2</title><g id="Capa_2" data-name="Capa 2"><g id="Capa_1-2" data-name="Capa 1"><ellipse class="cls-1" cx="101.09" cy="171.58" rx="56.91" ry="2.32"/><path class="cls-2" d="M42.07,70.43l16.09,80.49a3.32,3.32,0,0,0,3.25,2.66h79.35a3.32,3.32,0,0,0,3.25-2.66L160.1,70.43a3.31,3.31,0,0,0-3.24-4H45.31A3.31,3.31,0,0,0,42.07,70.43Z"/><rect class="cls-3" x="73.39" y="30.02" width="7.95" height="51.9" rx="3.42" transform="translate(55.53 -36.98) rotate(40.9)"/><rect class="cls-4" x="117.92" y="35.59" width="7.95" height="51.9" rx="3.42" transform="translate(236.13 -13.25) rotate(120)"/><circle class="cls-5" cx="85.7" cy="107.78" r="2.9"/><circle class="cls-5" cx="116.47" cy="107.78" r="2.9"/><path class="cls-6" d="M96.15,119.86s3.61-5,8.13,0"/><circle class="cls-7" cx="164.67" cy="41.5" r="3"/><circle class="cls-7" cx="121.67" cy="23.5" r="4"/><circle class="cls-7" cx="82.67" cy="3.5" r="3"/><circle class="cls-7" cx="56.67" cy="44.5" r="4"/><g class="cls-8"><line class="cls-9" x1="136.17" y1="45" x2="136.17" y2="52"/><line class="cls-9" x1="133.06" y1="48.5" x2="139.28" y2="48.5"/></g><g class="cls-8"><line class="cls-9" x1="78.17" y1="18" x2="78.17" y2="23"/><line class="cls-9" x1="75.95" y1="20.5" x2="80.39" y2="20.5"/></g><g class="cls-8"><line class="cls-9" x1="35.17" y1="45" x2="35.17" y2="52"/><line class="cls-9" x1="32.06" y1="48.5" x2="38.28" y2="48.5"/></g><g class="cls-8"><line class="cls-9" x1="150.17" y1="10.25" x2="150.17" y2="14.75"/><line class="cls-9" x1="148.17" y1="12.5" x2="152.17" y2="12.5"/></g><circle class="cls-10" cx="43.89" cy="112.06" r="27"/><circle class="cls-11" cx="43.89" cy="112.06" r="27" transform="translate(-66.38 63.85) rotate(-45)"/><path class="cls-12" d="M48.74,107.17q0,4-1.31,5.88a4.51,4.51,0,0,1-4,1.91,4.46,4.46,0,0,1-4-2,10.43,10.43,0,0,1-1.34-5.82q0-4,1.3-5.92a4.49,4.49,0,0,1,4-1.91,4.48,4.48,0,0,1,4,2A10.38,10.38,0,0,1,48.74,107.17Zm-7.42,0a11.88,11.88,0,0,0,.48,4,1.69,1.69,0,0,0,3.24,0,11.5,11.5,0,0,0,.5-4,11.58,11.58,0,0,0-.5-4,1.69,1.69,0,0,0-1.62-1.22,1.66,1.66,0,0,0-1.61,1.22A11.64,11.64,0,0,0,41.32,107.17Z"/><path d="M33,118.23q0-.57.63-.57c.43,0,.64.19.64.57a.57.57,0,0,1-.16.42.69.69,0,0,1-.48.15Q33,118.8,33,118.23Zm1.21,5.37H33.05v-4.27h1.16Z"/><path d="M37.24,122.75a2.45,2.45,0,0,0,.73-.13v.87a2.63,2.63,0,0,1-1.07.19,1.32,1.32,0,0,1-1-.35,1.56,1.56,0,0,1-.32-1.06v-2.06H35v-.5l.65-.39.33-.9h.75v.91h1.19v.88H36.73v2.06a.43.43,0,0,0,.14.36A.53.53,0,0,0,37.24,122.75Z"/><path d="M40.77,123.68a2.22,2.22,0,0,1-1.62-.57,2.19,2.19,0,0,1-.58-1.61,2.35,2.35,0,0,1,.54-1.66,1.92,1.92,0,0,1,1.49-.59,1.87,1.87,0,0,1,1.41.52,2,2,0,0,1,.5,1.42v.57H39.75a1.15,1.15,0,0,0,.3.78,1,1,0,0,0,.77.27,2.87,2.87,0,0,0,.73-.08,3.87,3.87,0,0,0,.72-.25v.9a2.86,2.86,0,0,1-.66.23A4.06,4.06,0,0,1,40.77,123.68Zm-.17-3.6a.74.74,0,0,0-.58.24,1.07,1.07,0,0,0-.24.66h1.64a1,1,0,0,0-.23-.66A.75.75,0,0,0,40.6,120.08Z"/><path d="M47.28,123.6H46.12v-2.49a1.17,1.17,0,0,0-.16-.69.52.52,0,0,0-.48-.24.7.7,0,0,0-.65.33,2.09,2.09,0,0,0-.21,1.08v2H43.46v-4.27h.89l.16.55h.06a1.17,1.17,0,0,1,.5-.46,1.58,1.58,0,0,1,.74-.17,1.34,1.34,0,0,1,1.3.63h.1a1.2,1.2,0,0,1,.51-.46,1.67,1.67,0,0,1,.76-.17,1.46,1.46,0,0,1,1.09.38,1.6,1.6,0,0,1,.38,1.19v2.78H48.78v-2.49a1.17,1.17,0,0,0-.16-.69.52.52,0,0,0-.48-.24.73.73,0,0,0-.64.31,1.66,1.66,0,0,0-.22,1Z"/><path d="M54.12,122.34a1.19,1.19,0,0,1-.45,1,2.27,2.27,0,0,1-1.37.34,4.38,4.38,0,0,1-.79-.06,3,3,0,0,1-.62-.19v-1a4.45,4.45,0,0,0,.73.26,3.43,3.43,0,0,0,.72.1c.42,0,.63-.12.63-.37a.31.31,0,0,0-.08-.22,1.4,1.4,0,0,0-.29-.2l-.55-.25a4.26,4.26,0,0,1-.73-.38A1.07,1.07,0,0,1,51,121a1.3,1.3,0,0,1-.11-.56,1,1,0,0,1,.44-.88,2.25,2.25,0,0,1,1.26-.31,3.49,3.49,0,0,1,1.5.34l-.35.84-.6-.23a1.87,1.87,0,0,0-.57-.08c-.35,0-.52.09-.52.27a.35.35,0,0,0,.17.28,4.87,4.87,0,0,0,.73.34,3.71,3.71,0,0,1,.73.37,1.12,1.12,0,0,1,.45,1Z"/><rect class="cls-13" x="0.05" y="95.8" width="6.97" height="1.74" rx="0.5"/><rect class="cls-13" x="8.18" y="83.02" width="6.97" height="1.74" rx="0.5" transform="translate(86.84 44.89) rotate(70.49)"/><rect class="cls-13" x="-0.6" y="87.18" width="9.29" height="1.74" rx="0.5" transform="translate(53.58 15.14) rotate(36.82)"/><rect class="cls-14" x="0.17" y="62" width="42" height="4"/><rect class="cls-14" x="160.17" y="62" width="42" height="4"/></g></g></svg>